<svg xmlns="http://www.w3.org/2000/svg" viewBox="0 0 681.62 681.62"><defs><style>.cls-1{fill:#fd38b9;}</style></defs><g id="Layer_2" data-name="Layer 2"><path class="cls-1" d="M902.06,732.87,776.19,607,902.06,481.13c49-49,49-129.18,0-178.19h0c-49-49-129.19-49-178.19,0L598,428.81,472.13,302.94c-49-49-129.18-49-178.19,0h0c-49,49-49,129.19,0,178.19L419.81,607,293.94,732.87c-49,49-49,129.18,0,178.19h0c49,49,129.19,49,178.19,0L598,785.19,723.87,911.06c49,49,129.18,49,178.19,0h0C951.06,862.05,951.06,781.87,902.06,732.87Z" transform="translate(-257.19 -266.19)"/></g></svg>