<svg id="Capa_1" data-name="Capa 1" xmlns="http://www.w3.org/2000/svg" viewBox="0 0 313.25 229.71"><defs><style>.cls-1{fill:#050503;}</style></defs><path class="cls-1" d="M376.35,308.29l2.36,20.5,1.13,1.13c.13,0,.72,0,1.74.1s1.81.1,2.36.1c1.37,0,3,0,4.82-.05a8.93,8.93,0,0,0,4.71-1.28c0-.62,0-1.67.15-3.18s.21-3.09.31-4.77.22-3.28.36-4.81.24-2.62.31-3.23a4.57,4.57,0,0,1,1.9-3.64,6.57,6.57,0,0,1,3.53-1h6.36a4.69,4.69,0,0,1,3.07,1.22,205.87,205.87,0,0,1,2,22.76q.36,11.38.36,22.86v2.46c0,1.23,0,2.51-.05,3.84s0,2.58,0,3.74v2.46a11.16,11.16,0,0,1-5,2,37.67,37.67,0,0,1-5.44.41,4.69,4.69,0,0,1-3.23-1,5.33,5.33,0,0,1-1.53-2.51,14.48,14.48,0,0,1-.57-3.33c-.07-1.2-.14-2.38-.2-3.54-.07-.55-.17-1.47-.31-2.77s-.26-2.66-.36-4.1-.2-2.8-.31-4.1-.15-2.18-.15-2.66l-1.13-1.13-1.59-.1c-.92-.07-1.62-.11-2.1-.11s-1.38,0-2.51-.05a18.4,18.4,0,0,0-3.33.21,7.6,7.6,0,0,0-2.87,1,2.65,2.65,0,0,0-1.23,2.41v18.25l-3.49,3.38-1.53.1c-1,.07-1.64.11-2.05.11s-.89,0-1.44-.06-1.13-.05-1.74-.05-1,0-1.49-.05l-.87,0a15.27,15.27,0,0,1-2.05-.51c-.89-.27-1.33-.48-1.33-.62V312.8a8.33,8.33,0,0,1,.46-1.49c.31-.85.53-1.48.67-1.9a3.16,3.16,0,0,1,.56-.66c.31-.31.49-.46.56-.46Z" transform="translate(-363.64 -301.26)"/><path class="cls-1" d="M415.61,315.67c0-.55,0-1.27.05-2.15s.06-1.81.06-2.77,0-1.69,0-2.41.05-1.11.05-1.18L417,306h28.49q.3,1.23.51,2.16t.36,1.89c.11.65.19,1.18.26,1.59V314c-.07.48-.21,1.14-.41,2s-.38,1.57-.52,2.15-.2.91-.2,1H431.81a2.05,2.05,0,0,0-2,1.64,9.44,9.44,0,0,0-.57,3.08v3.18a6.65,6.65,0,0,0,.21,1.64,3.65,3.65,0,0,0,.72,1.43,3.07,3.07,0,0,0,1.64.92,11.69,11.69,0,0,1,1.43-.25l2.46-.36,2.46-.36a14.46,14.46,0,0,1,1.54-.15l.92-.06c.48,0,.82-.05,1-.05a6.09,6.09,0,0,1,1.9.21c.37.14.63.86.76,2.15,0,.41,0,1.13.11,2.15s.11,2.12.15,3.28.09,2.26.15,3.29.11,1.74.11,2.15h-13v12H450c.14,0,.32.43.57,1.28s.46,1.56.66,2.1.17,1.1.31,1.85.26,1.48.36,2.2.2,1.35.3,1.9.16.85.16.92a3.24,3.24,0,0,1-.56.87,14.45,14.45,0,0,1-1,1.08,9.15,9.15,0,0,1-1.07.92,3.47,3.47,0,0,1-.88.51l-6.3.57c-1.95.17-3.86.3-5.74.41s-3.78.17-5.69.2-3.93.05-6,.05h-1.43c-.62,0-1.25,0-1.9-.05s-1.21,0-1.69,0h-.82l-1.13-1.13c-.2-2.87-.37-5.46-.51-7.79s-.29-4.93-.46-7.84-.34-5.82-.51-8.76-.33-5.78-.47-8.51-.24-5.06-.3-7c0-.27,0-1-.05-2.15s0-2.43,0-3.8,0-2.73-.06-4.1-.05-2.39-.05-3.07" transform="translate(-363.64 -301.26)"/><path class="cls-1" d="M458,365.28q-.42-10.25-.77-21.78t-.36-22.71v-4.1a53.55,53.55,0,0,1,.25-5.38c.17-1.67.47-3.81.88-6.41a4.88,4.88,0,0,1,2.3-2.46,10.11,10.11,0,0,1,3.54-1,28.66,28.66,0,0,1,3.94-.15c1.34,0,2.48.05,3.44.05a26.62,26.62,0,0,1,9.17,1.54,21.91,21.91,0,0,1,7.38,4.35,20,20,0,0,1,4.92,6.87,21.84,21.84,0,0,1,1.8,9,49.23,49.23,0,0,1-.52,7,28.69,28.69,0,0,1-1.74,6.71L491,337.91c-.14.21-.34.55-.61,1a16,16,0,0,0-.77,1.48c-.24.51-.45,1-.62,1.34a2.75,2.75,0,0,0-.25.66,10,10,0,0,0,.92,5.43,57.31,57.31,0,0,0,2.82,5.34q1.59,2.65,3,5.43a12.48,12.48,0,0,1,1.38,5.64,2,2,0,0,1-1,1.69,7.63,7.63,0,0,1-2.31,1,17.51,17.51,0,0,1-2.71.51,19.41,19.41,0,0,1-2.21.16,5,5,0,0,1-3.33-1.08,9.57,9.57,0,0,1-2.2-2.76,25.65,25.65,0,0,1-1.64-3.7c-.48-1.33-1-2.64-1.54-3.94a17.41,17.41,0,0,0-1.94-3.49,6.71,6.71,0,0,0-2.87-2.25,1.26,1.26,0,0,0-1.19.2,6.06,6.06,0,0,0-1.07,1,6.27,6.27,0,0,0-.82,1.23,2.26,2.26,0,0,0-.31.92v12.61a2.7,2.7,0,0,1-.56,1.79,4.07,4.07,0,0,1-1.49,1.08,6.46,6.46,0,0,1-2,.51c-.72.07-1.42.1-2.1.1H463c-1.85,0-3.06-.29-3.64-.87a7.5,7.5,0,0,1-1.38-3.74m16.5-52.58a2.71,2.71,0,0,0-.51.1A9.7,9.7,0,0,0,472.5,314c-.55.55-.82.92-.82,1.13v22.55a7.71,7.71,0,0,0,4.46-1.23,9.26,9.26,0,0,0,2.87-3.13,13.11,13.11,0,0,0,1.49-4.2,25.3,25.3,0,0,0,.41-4.36c0-.89-.06-2-.16-3.43a16.87,16.87,0,0,0-.77-4,8.49,8.49,0,0,0-1.94-3.28A4.77,4.77,0,0,0,474.45,312.7Z" transform="translate(-363.64 -301.26)"/><path class="cls-1" d="M501.92,365.28q-.42-10.25-.77-21.78t-.36-22.71v-4.1a50.65,50.65,0,0,1,.26-5.38q.26-2.51.87-6.41a4.92,4.92,0,0,1,2.3-2.46,10.11,10.11,0,0,1,3.54-1,28.75,28.75,0,0,1,3.95-.15c1.33,0,2.47.05,3.43.05a26.62,26.62,0,0,1,9.17,1.54,22.06,22.06,0,0,1,7.39,4.35,20.17,20.17,0,0,1,4.92,6.87,22,22,0,0,1,1.79,9,50.68,50.68,0,0,1-.51,7,29.19,29.19,0,0,1-1.75,6.71l-1.23,1.13c-.13.21-.34.55-.61,1s-.53,1-.77,1.48l-.62,1.34a3.35,3.35,0,0,0-.25.66,10,10,0,0,0,.92,5.43,57.31,57.31,0,0,0,2.82,5.34q1.59,2.65,3,5.43a12.37,12.37,0,0,1,1.39,5.64,2,2,0,0,1-1,1.69,7.68,7.68,0,0,1-2.3,1,17.86,17.86,0,0,1-2.72.51,19.42,19.42,0,0,1-2.2.16,5,5,0,0,1-3.34-1.08,9.74,9.74,0,0,1-2.2-2.76,25.65,25.65,0,0,1-1.64-3.7c-.48-1.33-1-2.64-1.54-3.94a16.93,16.93,0,0,0-1.94-3.49,6.62,6.62,0,0,0-2.88-2.25,1.22,1.22,0,0,0-1.17.2,5.78,5.78,0,0,0-1.08,1,6.75,6.75,0,0,0-.82,1.23,2.43,2.43,0,0,0-.31.92v12.61a2.7,2.7,0,0,1-.56,1.79,4,4,0,0,1-1.49,1.08,6.46,6.46,0,0,1-2,.51c-.71.07-1.42.1-2.1.1h-2.56c-1.84,0-3.06-.29-3.64-.87a7.5,7.5,0,0,1-1.38-3.74m16.5-52.58a2.71,2.71,0,0,0-.51.1,9.7,9.7,0,0,0-1.44,1.23c-.55.55-.82.92-.82,1.13v22.55a7.69,7.69,0,0,0,4.46-1.23,9.16,9.16,0,0,0,2.87-3.13,13.11,13.11,0,0,0,1.49-4.2,25.3,25.3,0,0,0,.41-4.36c0-.89,0-2-.16-3.43a16.86,16.86,0,0,0-.76-4,8.39,8.39,0,0,0-2-3.28A4.77,4.77,0,0,0,518.42,312.7Z" transform="translate(-363.64 -301.26)"/><path class="cls-1" d="M545.69,314.44c0-1.23,0-2.44.1-3.64s.1-1.93.1-2.2l1.13-1.13h16c.13,1.16.31,2.94.51,5.33s.43,5.07.67,8,.46,6.12.66,9.44.42,6.47.62,9.48.39,5.69.56,8,.29,4.09.36,5.18c0,.62,0,1.74.1,3.38s.12,3.37.16,5.18.08,3.52.15,5.12.1,2.76.1,3.44H550.5l-1.22-3.39a18.5,18.5,0,0,1-.36-2.56c-.18-1.5-.38-3.41-.62-5.74s-.48-4.88-.72-7.69l-.72-8.4c-.24-2.8-.44-5.47-.61-8s-.29-4.65-.36-6.36c0-.14,0-.51,0-1.13s-.05-1.36-.05-2.25,0-1.81,0-2.77,0-1.88,0-2.77v-4.61Z" transform="translate(-363.64 -301.26)"/><path class="cls-1" d="M379.84,386.06h5.64c.95.07,2.13.17,3.53.31l4.1.36c1.33.1,3,.25,4.87.46l1.23,1.23,5.64,25,2.26,2.25,2.35-9.12c.27-1,.65-2.37,1.13-4.05s1-3.31,1.49-4.92,1.14-3.53,1.89-5.79l2.26-2.25c.13,0,.71-.05,1.74-.16s2-.15,3-.15h1.64a54.5,54.5,0,0,1,8.31.51,12.94,12.94,0,0,1,5,1.69,6.32,6.32,0,0,1,2.51,3.08,20.33,20.33,0,0,1,1.07,4.71c.24,1.88.46,4.09.67,6.61a87.81,87.81,0,0,0,1.23,8.71q.72,3.9,1.69,7.75t1.9,7.73c.61,2.6,1.13,5.23,1.54,7.9a53.06,53.06,0,0,1,.61,8.09,3,3,0,0,1-1.69,2.93,10.54,10.54,0,0,1-3.95,1.07,32.93,32.93,0,0,1-4.56.1c-1.54-.06-2.71-.1-3.53-.1-.62,0-1.49,0-2.62,0l-2-.05-1.12-1.23-2.26-26.14a4.58,4.58,0,0,0-.82-1.89,4.66,4.66,0,0,0-1.43-1.49c-.89,2.53-1.77,4.87-2.62,7s-1.69,4.32-2.51,6.51-1.66,4.47-2.51,6.87-1.73,5.05-2.61,8a4,4,0,0,1-2.83,2,17.76,17.76,0,0,1-4,.46h-2.26c-.27,0-.85,0-1.74,0l-1.64-.05a34.58,34.58,0,0,1-3.38-7.17q-1.44-4.11-2.67-8.62t-2.2-9q-1-4.5-2-8.3a1.13,1.13,0,0,1-.31-.05,1.73,1.73,0,0,0-.31-.05,2.71,2.71,0,0,0-.51.1c-.34.27-.8.69-1.38,1.23a4.22,4.22,0,0,0-1,1.13l-7.27,29.11-15-1.85-.51-3.38c0-.06.15-.85.46-2.35s.7-3.28,1.18-5.34,1-4.15,1.53-6.3,1-3.95,1.44-5.38q2.35-9.23,4.77-18.2t4.25-18.29a3.9,3.9,0,0,1,2.36-1.13" transform="translate(-363.64 -301.26)"/><path class="cls-1" d="M450.67,390.26h12.09l1.13,1.64c.07.76.17,2.1.31,4.05s.25,4,.36,6.15.2,4.19.31,6.1.18,3.25.25,4c.07,1.5.26,3.42.57,5.74a36.43,36.43,0,0,0,1.53,6.76,17.61,17.61,0,0,0,3,5.64,6,6,0,0,0,4.87,2.36c.54,0,1.31-.05,2.3-.15s1.95-.24,2.87-.41,1.73-.34,2.41-.52,1-.32,1-.46l1.23-3c-.07-.55-.13-1.38-.2-2.51s-.17-2.48-.31-4.05-.25-3.19-.36-4.87-.22-3.4-.36-5.18-.27-3.53-.41-5.27-.25-3.37-.36-4.88-.2-2.83-.3-4-.15-2.05-.15-2.67q0-.4-.06-1.59c0-.78-.05-1.41-.05-1.89v-1.44a6.52,6.52,0,0,1,.56-2.61,2,2,0,0,1,2-1.28h9.84l1.23,1.53c.07.21.24,1.17.52,2.88s.53,3.72.77,6,.47,4.68.71,7.08.4,4.33.47,5.84v2.25c0,1.44,0,3.06.05,4.87s.05,3.61.05,5.38v7.69c0,1.51,0,3.16-.05,5a18.81,18.81,0,0,1-1.08,5.69,24.8,24.8,0,0,1-2,4.67,6.93,6.93,0,0,1-4,2.81,37.73,37.73,0,0,1-8.35,2.11,70.67,70.67,0,0,1-9.89.66,15.93,15.93,0,0,1-8.51-2.2,19.74,19.74,0,0,1-6.1-6,33.57,33.57,0,0,1-4.05-8.61,72.5,72.5,0,0,1-2.41-10.3A105.27,105.27,0,0,1,451,412.3q-.32-5.64-.31-10.76Z" transform="translate(-363.64 -301.26)"/><path class="cls-1" d="M506,442.54a8.27,8.27,0,0,1,.46-1.85,29.6,29.6,0,0,1,1.18-3,16.37,16.37,0,0,1,1.59-2.82c.58-.82,1.14-1.23,1.69-1.23a11.81,11.81,0,0,1,3.12.41c1,.28,2,.57,2.92.87s1.93.58,2.93.82a13.65,13.65,0,0,0,3.23.36h2.56a8.64,8.64,0,0,0,3.64-.82,3.15,3.15,0,0,0,1.79-3.18,3.86,3.86,0,0,0-2.25-3.43,39.16,39.16,0,0,0-5.59-2.51q-3.33-1.23-7.18-2.77a26.43,26.43,0,0,1-7-4.15,18.49,18.49,0,0,1-5.07-6.77q-1.9-4.14-1.38-10.6a19.33,19.33,0,0,1,2.56-8.92,20,20,0,0,1,5.74-6.26,24.58,24.58,0,0,1,7.89-3.64,35.41,35.41,0,0,1,9.12-1.17c.55,0,1.46.05,2.72.15s2.7.27,4.31.51,3.26.55,5,.93a27.17,27.17,0,0,1,4.66,1.43,13.11,13.11,0,0,1,3.48,2.05,3.41,3.41,0,0,1,1.39,2.62c0,.13,0,.35-.05.66a5.2,5.2,0,0,0,0,.57,10.53,10.53,0,0,0-.77,1.89c-.31.92-.63,1.91-1,3s-.67,2.07-1,3a15.47,15.47,0,0,1-.77,2.05c-.13,0-.41,0-.82,0l-.82.05a11.68,11.68,0,0,1-4.61-.92,14.81,14.81,0,0,1-4-2.57h-12.5c-1.71,0-2.72.45-3,1.34a8.64,8.64,0,0,0-.46,2.87,4.34,4.34,0,0,0,2.05,3.89,22.51,22.51,0,0,0,5.08,2.36q3,1,6.56,2.26a23.55,23.55,0,0,1,6.56,3.53,18.72,18.72,0,0,1,5.07,6.15,21.44,21.44,0,0,1,2,10.1q0,9.54-5.33,14.71t-15.17,5.79a22.82,22.82,0,0,1-4.36-.36,52.83,52.83,0,0,1-6.71-1.43,29.38,29.38,0,0,1-6.3-2.52c-1.88-1-2.93-2.18-3.13-3.48" transform="translate(-363.64 -301.26)"/><path class="cls-1" d="M554.4,395c0-1.23,0-2.45.1-3.64s.1-1.93.1-2.2l1.13-1.13h16c.14,1.16.31,2.94.51,5.33s.43,5.07.67,8,.46,6.12.67,9.44.41,6.47.61,9.48.39,5.69.56,8,.3,4.09.36,5.18c0,.61,0,1.74.11,3.38s.12,3.37.15,5.18.09,3.52.15,5.13.11,2.74.11,3.43h-16.4L558,447.25a22.87,22.87,0,0,1-.36-2.56q-.25-2.25-.62-5.74t-.71-7.69q-.37-4.2-.72-8.4t-.62-8q-.26-3.78-.36-6.35c0-.14,0-.51-.05-1.13s0-1.37,0-2.26,0-1.8,0-2.76-.05-1.88-.05-2.77V395Z" transform="translate(-363.64 -301.26)"/><path class="cls-1" d="M580.43,450.33v-57a8.87,8.87,0,0,1,.47-1.49c.3-.85.52-1.49.66-1.9a4,4,0,0,1,.56-.66c.31-.31.5-.46.57-.46h10.25c.27,0,.49.22.67.66a6.36,6.36,0,0,1,.35,1.64,19.66,19.66,0,0,1,.11,2.11v3.58c0,.48,0,1.37.1,2.67s.17,2.68.31,4.15.27,2.85.41,4.15a16.82,16.82,0,0,0,.41,2.66,9.13,9.13,0,0,0,1.59.67,6.25,6.25,0,0,0,1.79.46q.3,0,12-18.24a4.4,4.4,0,0,1,.62-.92c.41-.55.75-1,1-1.34l1.13-1.13h11.38l1.23,1.13a3.77,3.77,0,0,1-.41,1.44c-.35.89-.87,2.06-1.59,3.53s-1.64,3.17-2.77,5.08-2.44,3.89-3.94,5.94q-1.44,2.16-2.77,4.26t-2.46,4.15c-1.51,2.73-2,4.58-1.33,5.53q.51.72,2.76,3.69t6.36,8.51l3.59,6.46,3.69,7.28a13.78,13.78,0,0,1-.77,1.64c-.24.41-.5.8-.77,1.18a1.11,1.11,0,0,1-.82.56H613.54q-14.44-24-14.86-23.88l-.72.66c-.41.38-.85.82-1.33,1.33s-.92,1-1.33,1.49a2.15,2.15,0,0,0-.62,1v19.37Z" transform="translate(-363.64 -301.26)"/><path class="cls-1" d="M640.4,390a5.79,5.79,0,0,1,3.58-2.81,17.09,17.09,0,0,1,4.72-.67h3.07l2.31,0c1.13,0,1.9.05,2.31.05a32.08,32.08,0,0,1,3.38,6.1q2.06,4.45,4.31,10.41t4.56,12.65q2.29,6.72,4.15,12.82t3,10.86a34.46,34.46,0,0,1,1.13,6.92V447a10,10,0,0,0-.67,1.38c-.24.58-.43.87-.56.87H663.15a1.76,1.76,0,0,1-1.59-1.23,28.31,28.31,0,0,1-1.07-2.77,21.09,21.09,0,0,0-1.13-2.76,2,2,0,0,0-1.84-1.23H646.14c-.82,0-1.33.48-1.54,1.43a22,22,0,0,0-.41,3.13,27.65,27.65,0,0,1-.36,3.12c-.17,1-.56,1.44-1.18,1.44H630.86c0-.27,0-.85,0-1.74s.09-1.81.16-2.77.12-1.88.15-2.77,0-1.5,0-1.84q1.54-12.82,3.64-25.83A243.5,243.5,0,0,1,640.4,390m13.94,32.29c0-.54,0-1.34-.11-2.41s-.17-2.11-.3-3.17a22.24,22.24,0,0,0-.52-2.77c-.2-.79-.44-1.18-.71-1.18h-2.87c-.07,0-.17.21-.31.62s-.29.92-.46,1.53-.33,1.27-.46,1.95a9,9,0,0,0-.21,1.74c0,.28,0,.77,0,1.49s-.09,1.49-.15,2.31-.12,1.58-.16,2.3,0,1.22,0,1.49a13.78,13.78,0,0,0,4.92-.62C653.86,425.11,654.34,424,654.34,422.24Z" transform="translate(-363.64 -301.26)"/><path class="cls-1" d="M363.64,476.75c0-.55,0-1.27.05-2.16s.06-1.81.06-2.76,0-1.7.05-2.41.05-1.11.05-1.18l1.13-1.13h28.49c.21.82.38,1.54.51,2.15s.26,1.25.36,1.9.19,1.18.26,1.59v2.35c-.07.49-.21,1.15-.41,2s-.38,1.58-.51,2.16a9.55,9.55,0,0,0-.21,1H379.84a2.05,2.05,0,0,0-2,1.64,9.41,9.41,0,0,0-.56,3.08v3.17a6.65,6.65,0,0,0,.2,1.65,3.65,3.65,0,0,0,.72,1.43,3.07,3.07,0,0,0,1.64.92,11,11,0,0,1,1.43-.26l2.46-.35,2.46-.36a12.62,12.62,0,0,1,1.54-.16c.14,0,.45,0,.92-.05s.82-.05,1-.05a6,6,0,0,1,1.9.21c.37.13.63.85.76,2.15,0,.41,0,1.13.11,2.15s.11,2.12.15,3.28.08,2.26.15,3.28.11,1.75.11,2.16h-13v12H398c.14,0,.33.43.56,1.28s.47,1.55.67,2.1.17,1.1.31,1.85.26,1.48.36,2.2.2,1.35.31,1.9.15.85.15.92a3.59,3.59,0,0,1-.56.87c-.31.38-.64.73-1,1.08a9.15,9.15,0,0,1-1.07.92,3.81,3.81,0,0,1-.88.51l-6.3.57c-1.95.16-3.86.3-5.74.4s-3.78.17-5.69.21-3.93.05-6.05.05h-1.43c-.62,0-1.25,0-1.9-.05s-1.21,0-1.69,0h-.82l-1.13-1.13c-.2-2.87-.37-5.46-.51-7.79s-.29-4.94-.46-7.84-.34-5.82-.51-8.76-.33-5.78-.46-8.51-.25-5.06-.31-7c0-.27,0-1-.05-2.15s-.05-2.42-.05-3.79,0-2.73-.06-4.1-.05-2.39-.05-3.07" transform="translate(-363.64 -301.26)"/><path class="cls-1" d="M408.23,523.08a8.27,8.27,0,0,1,.46-1.85,29.6,29.6,0,0,1,1.18-3,17.06,17.06,0,0,1,1.59-2.82c.58-.82,1.14-1.23,1.69-1.23a11.83,11.83,0,0,1,3.13.41c1,.28,2,.57,2.92.87s1.93.58,2.92.82a13.71,13.71,0,0,0,3.23.36h2.56a8.61,8.61,0,0,0,3.64-.82,3.15,3.15,0,0,0,1.8-3.18,3.86,3.86,0,0,0-2.26-3.43,38.65,38.65,0,0,0-5.59-2.51q-3.33-1.23-7.17-2.77a26.54,26.54,0,0,1-7-4.15,18.63,18.63,0,0,1-5.08-6.77q-1.89-4.14-1.38-10.61a19.45,19.45,0,0,1,2.56-8.91,20.16,20.16,0,0,1,5.74-6.26,24.68,24.68,0,0,1,7.89-3.64,35.44,35.44,0,0,1,9.13-1.18c.54,0,1.45.06,2.71.16s2.7.27,4.31.51,3.26.55,5,.92a27.78,27.78,0,0,1,4.66,1.44,12.91,12.91,0,0,1,3.49,2.05,3.41,3.41,0,0,1,1.38,2.61c0,.14,0,.36-.05.67s-.05.5-.05.56a12,12,0,0,0-.77,1.9c-.3.92-.63,1.91-1,3l-1,3a16.39,16.39,0,0,1-.76,2.05c-.14,0-.41,0-.82.05l-.82.05a11.72,11.72,0,0,1-4.62-.92,14.81,14.81,0,0,1-4-2.57h-12.5c-1.71,0-2.72.45-3,1.34a8.62,8.62,0,0,0-.47,2.86,4.35,4.35,0,0,0,2.06,3.9,22.22,22.22,0,0,0,5.07,2.36l6.56,2.25a23.44,23.44,0,0,1,6.56,3.54,18.72,18.72,0,0,1,5.07,6.15,21.42,21.42,0,0,1,2.05,10.1q0,9.52-5.33,14.71t-15.17,5.79a23.62,23.62,0,0,1-4.35-.36,54.38,54.38,0,0,1-6.72-1.43,29.8,29.8,0,0,1-6.3-2.52q-2.82-1.53-3.13-3.48" transform="translate(-363.64 -301.26)"/><path class="cls-1" d="M455.69,530.87v-57a8.08,8.08,0,0,1,.46-1.49c.31-.85.53-1.49.67-1.9a2.92,2.92,0,0,1,.56-.66c.31-.31.5-.47.57-.47H468.2c.27,0,.49.23.66.67a6.67,6.67,0,0,1,.36,1.64,19.61,19.61,0,0,1,.11,2.1v3.59c0,.48,0,1.37.1,2.67s.17,2.68.3,4.15.28,2.85.41,4.15a19.65,19.65,0,0,0,.41,2.66,9.94,9.94,0,0,0,1.59.67,6.29,6.29,0,0,0,1.8.46q.3,0,12-18.24a4.28,4.28,0,0,1,.61-.93c.41-.54.75-1,1-1.33l1.13-1.13h11.38l1.22,1.13c.07.07-.06.55-.41,1.44s-.87,2.06-1.59,3.53-1.64,3.17-2.76,5.08-2.45,3.89-4,5.94c-.95,1.44-1.88,2.86-2.76,4.25s-1.72,2.79-2.47,4.16c-1.5,2.73-1.94,4.58-1.33,5.53q.51.72,2.77,3.69t6.35,8.51l3.59,6.46,3.69,7.28a12.37,12.37,0,0,1-.77,1.64c-.24.4-.49.8-.77,1.18a1.09,1.09,0,0,1-.81.56H488.8q-14.46-24-14.86-23.89l-.72.67c-.41.38-.86.82-1.33,1.33s-.93,1-1.34,1.49a2.12,2.12,0,0,0-.61,1v19.38Z" transform="translate(-363.64 -301.26)"/><path class="cls-1" d="M504.89,496.74a35.66,35.66,0,0,1,1.54-10.15A32.84,32.84,0,0,1,511,477a25.77,25.77,0,0,1,7.38-7.12,18,18,0,0,1,9.89-2.77A26.76,26.76,0,0,1,540.77,470a30,30,0,0,1,9.53,7.69,35.72,35.72,0,0,1,6.05,10.92,38,38,0,0,1,2.15,12.6,38.48,38.48,0,0,1-1.59,11.07,29.3,29.3,0,0,1-4.76,9.49,24.49,24.49,0,0,1-7.79,6.66,23.62,23.62,0,0,1-22.35-.62,32.32,32.32,0,0,1-9.07-8.09,38.63,38.63,0,0,1-6-11.07,36.58,36.58,0,0,1-2.1-11.94m14.66.51a27.16,27.16,0,0,0,.67,5.38,28.42,28.42,0,0,0,2,6.25,17,17,0,0,0,3.58,5.18,7.2,7.2,0,0,0,5.18,2.15,8,8,0,0,0,5.07-1.54,10.91,10.91,0,0,0,3.18-3.89,18,18,0,0,0,1.64-5,29.18,29.18,0,0,0,.46-5,41.52,41.52,0,0,0-.46-5.74,23.85,23.85,0,0,0-1.74-6.2,14.92,14.92,0,0,0-3.49-5,7.86,7.86,0,0,0-5.58-2.05,8.53,8.53,0,0,0-5.13,1.49A11,11,0,0,0,521.7,487a15.82,15.82,0,0,0-1.69,5A31.57,31.57,0,0,0,519.55,497.25Z" transform="translate(-363.64 -301.26)"/><path class="cls-1" d="M562.5,470.49a6.78,6.78,0,0,1,.51-1.38c.27-.58.48-.87.62-.87h15.58L582,516.11h20.4a1.41,1.41,0,0,1,1.18.61,4.59,4.59,0,0,1,.72,1.49,10.51,10.51,0,0,1,.36,1.9,19,19,0,0,1,.1,1.94v2.05a4.46,4.46,0,0,1-2.51,4.15,18.13,18.13,0,0,1-5.79,2,42.65,42.65,0,0,1-6.51.62c-2.16,0-3.71,0-4.66,0h-1.75c-1,0-2.17,0-3.43,0s-2.48.05-3.64.05h-4.82c-.82,0-1.64,0-2.46-.05s-1.57,0-2.25,0h-1l-1.12-1.13c-.21-1.43-.36-2.63-.46-3.59s-.23-1.95-.36-3-.24-1.88-.31-2.56q-.52-5.64-.82-11.23t-.31-11.22V470.49Z" transform="translate(-363.64 -301.26)"/><path class="cls-1" d="M618.36,470.49a5.86,5.86,0,0,1,3.59-2.82,17.4,17.4,0,0,1,4.72-.66h3.07l2.31.05c1.13,0,1.89.05,2.31.05a32.65,32.65,0,0,1,3.38,6.1q2,4.46,4.3,10.4c1.5,4,3,8.19,4.56,12.66s2.93,8.75,4.15,12.82,2.22,7.68,3,10.86a34.46,34.46,0,0,1,1.13,6.92v.62a10,10,0,0,0-.67,1.38q-.36.87-.57.87h-12.5a1.76,1.76,0,0,1-1.59-1.23,26,26,0,0,1-1.07-2.77,22.74,22.74,0,0,0-1.13-2.77,2,2,0,0,0-1.85-1.22H624.11c-.83,0-1.34.47-1.54,1.43a19.45,19.45,0,0,0-.41,3.13,27.38,27.38,0,0,1-.36,3.12c-.18,1-.57,1.44-1.18,1.44H608.83c0-.27,0-.85,0-1.74s.09-1.81.16-2.77.11-1.88.15-2.77,0-1.5,0-1.84q1.54-12.82,3.64-25.84a246.45,246.45,0,0,1,5.48-25.42m13.94,32.29c0-.54,0-1.35-.1-2.41s-.17-2.11-.31-3.17a20.36,20.36,0,0,0-.51-2.77c-.2-.79-.44-1.18-.72-1.18h-2.87c-.06,0-.17.2-.3.61s-.29.93-.47,1.54-.32,1.27-.46,2a9.56,9.56,0,0,0-.2,1.74c0,.28,0,.77-.05,1.49s-.09,1.48-.16,2.3-.12,1.59-.15,2.31,0,1.22,0,1.49a13.78,13.78,0,0,0,4.92-.62C631.83,505.65,632.3,504.56,632.3,502.78Z" transform="translate(-363.64 -301.26)"/></svg>