<svg id="Capa_1" data-name="Capa 1" xmlns="http://www.w3.org/2000/svg" viewBox="0 0 623.93 457.55"><defs><style>.cls-1{fill:#fff;}</style></defs><path class="cls-1" d="M104.62,198.53l4.7,40.84,2.24,2.24q.41,0,3.48.21c2,.14,3.6.2,4.69.2q4.08,0,9.59-.1a18,18,0,0,0,9.4-2.55q0-1.85.3-6.33c.21-3,.41-6.16.62-9.5s.44-6.53.71-9.59.48-5.21.61-6.43q.61-5.31,3.78-7.25a13.24,13.24,0,0,1,7-1.94h12.67a9.29,9.29,0,0,1,6.12,2.45,410.33,410.33,0,0,1,4,45.32q.72,22.68.72,45.53v4.91q0,3.68-.11,7.65t-.1,7.45v4.9a22.39,22.39,0,0,1-10,3.89,77.29,77.29,0,0,1-10.82.81c-2.86,0-5-.64-6.44-1.94a10.68,10.68,0,0,1-3.06-5,28.33,28.33,0,0,1-1.12-6.63q-.21-3.57-.41-7c-.14-1.09-.34-2.92-.61-5.51s-.51-5.32-.72-8.17-.4-5.58-.61-8.17-.31-4.35-.31-5.31l-2.24-2.24c-.28,0-1.33-.07-3.17-.21s-3.23-.2-4.18-.2-2.76,0-5-.1a35.75,35.75,0,0,0-6.64.41,14.93,14.93,0,0,0-5.72,2,5.26,5.26,0,0,0-2.45,4.8v36.33L104.62,321c-.14,0-1.16.06-3.06.2s-3.27.21-4.08.21-1.78,0-2.86-.11-2.25-.1-3.47-.1-2.08,0-3-.1-1.47-.1-1.74-.1a30,30,0,0,1-4.08-1c-1.78-.55-2.66-1-2.66-1.23V207.52a17.72,17.72,0,0,1,.92-3c.61-1.7,1.05-3,1.33-3.77a6.7,6.7,0,0,1,1.12-1.33c.61-.61,1-.92,1.12-.92Z" transform="translate(-79.3 -184.53)"/><path class="cls-1" d="M182.82,213.23c0-1.09,0-2.51.1-4.28s.1-3.61.1-5.52,0-3.36.1-4.8.11-2.21.11-2.34l2.24-2.25h56.76c.41,1.64.75,3.06,1,4.29s.51,2.49.72,3.78.37,2.34.5,3.16V210c-.13.95-.4,2.28-.81,4s-.75,3.13-1,4.29-.41,1.8-.41,1.94H215.07q-2.87,0-4,3.26a18.89,18.89,0,0,0-1.13,6.13v6.33a13.56,13.56,0,0,0,.41,3.27,7.11,7.11,0,0,0,1.43,2.85,6.23,6.23,0,0,0,3.26,1.84,23.35,23.35,0,0,1,2.87-.51q2.24-.3,4.89-.72c1.77-.27,3.41-.51,4.91-.71a26.14,26.14,0,0,1,3.06-.31c.27,0,.88,0,1.83-.1s1.64-.1,2.05-.1a12.06,12.06,0,0,1,3.78.41c.74.27,1.25,1.7,1.52,4.28q0,1.23.21,4.29c.14,2,.23,4.22.3,6.54s.18,4.49.31,6.53.21,3.47.21,4.28H215.07v23.89h36.14c.28,0,.65.86,1.13,2.56s.92,3.09,1.32,4.18c.14,1,.34,2.18.62,3.68s.51,3,.71,4.39.41,2.69.61,3.77.31,1.71.31,1.84a6.54,6.54,0,0,1-1.12,1.74,28.15,28.15,0,0,1-1.94,2.14,19.31,19.31,0,0,1-2.14,1.84,7.24,7.24,0,0,1-1.74,1l-12.56,1.12q-5.82.51-11.43.82c-3.75.2-7.52.33-11.33.4s-7.83.11-12.05.11h-2.86c-1.22,0-2.48,0-3.77-.11s-2.42-.09-3.37-.09H190l-2.24-2.25q-.61-8.58-1-15.52c-.28-4.62-.58-9.83-.93-15.62s-.67-11.6-1-17.45-.65-11.5-.92-16.95-.48-10.07-.61-13.88c0-.55,0-2-.11-4.29s-.1-4.83-.1-7.55,0-5.45-.1-8.17-.1-4.76-.1-6.13" transform="translate(-79.3 -184.53)"/><path class="cls-1" d="M267.14,312.05q-.83-20.42-1.53-43.38t-.72-45.23v-8.16a106.24,106.24,0,0,1,.51-10.73q.51-5,1.74-12.76a9.82,9.82,0,0,1,4.59-4.9,20.07,20.07,0,0,1,7-2,60.22,60.22,0,0,1,7.86-.3c2.65.07,4.92.1,6.84.1a53.4,53.4,0,0,1,18.27,3.06,44.2,44.2,0,0,1,14.7,8.68,39.87,39.87,0,0,1,9.8,13.68,43.67,43.67,0,0,1,3.57,17.87,100.42,100.42,0,0,1-1,14,57.08,57.08,0,0,1-3.47,13.37l-2.45,2.25c-.27.41-.68,1.09-1.22,2s-1.06,1.94-1.54,3l-1.22,2.66a6.16,6.16,0,0,0-.51,1.32,20.1,20.1,0,0,0,1.84,10.82A113.35,113.35,0,0,0,335.84,288q3.17,5.31,5.93,10.82A25,25,0,0,1,344.52,310a4,4,0,0,1-1.94,3.37,15.06,15.06,0,0,1-4.59,2,35.35,35.35,0,0,1-5.41,1,40.71,40.71,0,0,1-4.39.31,10,10,0,0,1-6.64-2.15,18.81,18.81,0,0,1-4.39-5.51,51.11,51.11,0,0,1-3.27-7.35q-1.42-4-3.06-7.86a34,34,0,0,0-3.88-6.94,13.21,13.21,0,0,0-5.71-4.49,2.49,2.49,0,0,0-2.36.41,12,12,0,0,0-2.14,2,12.56,12.56,0,0,0-1.63,2.45,4.64,4.64,0,0,0-.61,1.83V314.3a5.32,5.32,0,0,1-1.13,3.57,8,8,0,0,1-3,2.15,12.88,12.88,0,0,1-4,1c-1.43.13-2.83.2-4.18.2h-5.1q-5.52,0-7.25-1.74c-1.16-1.15-2.08-3.64-2.76-7.45M300,207.31a6,6,0,0,0-1,.21,18.84,18.84,0,0,0-2.86,2.45c-1.09,1.09-1.63,1.83-1.63,2.24v44.92a15.38,15.38,0,0,0,8.88-2.45,18.56,18.56,0,0,0,5.72-6.23,26.12,26.12,0,0,0,3-8.37,50.15,50.15,0,0,0,.82-8.68c0-1.77-.11-4-.31-6.83a33.9,33.9,0,0,0-1.54-8,16.72,16.72,0,0,0-3.87-6.53A9.48,9.48,0,0,0,300,207.31Z" transform="translate(-79.3 -184.53)"/><path class="cls-1" d="M354.73,312.05q-.83-20.42-1.53-43.38t-.72-45.23v-8.16a103.39,103.39,0,0,1,.51-10.73q.51-5,1.74-12.76a9.82,9.82,0,0,1,4.59-4.9,20,20,0,0,1,7-2,60.36,60.36,0,0,1,7.86-.3q4,.1,6.84.1a53.32,53.32,0,0,1,18.27,3.06A44.35,44.35,0,0,1,414,196.39a40,40,0,0,1,9.8,13.68,43.83,43.83,0,0,1,3.57,17.87,100.42,100.42,0,0,1-1,14,58.07,58.07,0,0,1-3.47,13.37l-2.45,2.25q-.42.61-1.23,2c-.55.95-1.05,1.94-1.53,3s-.89,1.91-1.23,2.66a6.85,6.85,0,0,0-.51,1.32,20.19,20.19,0,0,0,1.84,10.82A113.49,113.49,0,0,0,423.43,288q3.17,5.31,5.92,10.82A24.84,24.84,0,0,1,432.1,310a4,4,0,0,1-1.94,3.37,14.85,14.85,0,0,1-4.59,2,35.12,35.12,0,0,1-5.41,1,40.55,40.55,0,0,1-4.39.31,10,10,0,0,1-6.64-2.15,18.78,18.78,0,0,1-4.38-5.51,51.11,51.11,0,0,1-3.27-7.35c-1-2.65-2-5.27-3.06-7.86a34,34,0,0,0-3.88-6.94,13.3,13.3,0,0,0-5.72-4.49,2.44,2.44,0,0,0-2.34.41,11.68,11.68,0,0,0-2.15,2,13.1,13.1,0,0,0-1.64,2.45,4.82,4.82,0,0,0-.61,1.83V314.3a5.37,5.37,0,0,1-1.12,3.57,8.1,8.1,0,0,1-3,2.15,13,13,0,0,1-4,1c-1.43.13-2.83.2-4.19.2h-5.1c-3.68,0-6.09-.58-7.25-1.74s-2.08-3.64-2.75-7.45M387.6,207.31a5.87,5.87,0,0,0-1,.21,19.86,19.86,0,0,0-2.85,2.45c-1.1,1.09-1.64,1.83-1.64,2.24v44.92a15.41,15.41,0,0,0,8.89-2.45,18.53,18.53,0,0,0,5.71-6.23,26.12,26.12,0,0,0,3-8.37,49.19,49.19,0,0,0,.82-8.68c0-1.77-.11-4-.31-6.83a33.39,33.39,0,0,0-1.53-8,16.72,16.72,0,0,0-3.87-6.53A9.48,9.48,0,0,0,387.6,207.31Z" transform="translate(-79.3 -184.53)"/><path class="cls-1" d="M441.9,210.78c0-2.45.06-4.86.21-7.25s.2-3.84.2-4.38l2.25-2.25H476.4c.27,2.31.62,5.85,1,10.62s.85,10.1,1.32,16,.93,12.19,1.33,18.79.82,12.89,1.23,18.88.78,11.34,1.12,16,.58,8.14.71,10.31c0,1.23.07,3.47.21,6.74s.24,6.7.3,10.31.17,7,.31,10.21.2,5.48.2,6.84H451.5l-2.45-6.74a46.73,46.73,0,0,1-.72-5.1q-.51-4.5-1.22-11.44t-1.43-15.31q-.72-8.37-1.43-16.74T443,250.39q-.51-7.54-.71-12.66c0-.26,0-1-.1-2.24s-.1-2.72-.1-4.49,0-3.61-.1-5.52-.11-3.74-.11-5.51v-9.19Z" transform="translate(-79.3 -184.53)"/><path class="cls-1" d="M111.56,353.44h11.23q2.86.21,7,.61c2.79.28,5.51.51,8.16.72s5.89.51,9.71.92l2.44,2.44L161.38,408l4.5,4.48,4.69-18.17c.54-2,1.29-4.72,2.24-8.06s1.94-6.6,3-9.8,2.28-7,3.78-11.54l4.49-4.49c.28,0,1.43-.1,3.48-.3a57.7,57.7,0,0,1,5.91-.31h3.27a107.93,107.93,0,0,1,16.54,1,25.67,25.67,0,0,1,9.91,3.37,12.52,12.52,0,0,1,5,6.13,41.5,41.5,0,0,1,2.15,9.39c.47,3.74.92,8.13,1.32,13.17a172.38,172.38,0,0,0,2.46,17.35q1.43,7.76,3.36,15.42T241.21,441q1.84,7.75,3.07,15.72a106.85,106.85,0,0,1,1.22,16.13,6,6,0,0,1-3.37,5.82,21.11,21.11,0,0,1-7.86,2.14,67,67,0,0,1-9.09.21q-4.59-.21-7-.21c-1.22,0-3,0-5.21-.1s-3.57-.1-4-.1l-2.24-2.45-4.49-52.07a9.33,9.33,0,0,0-1.64-3.77,9.13,9.13,0,0,0-2.86-3q-2.66,7.55-5.2,14t-5,13q-2.46,6.53-5,13.68t-5.2,15.92a8,8,0,0,1-5.62,4,35.84,35.84,0,0,1-8.06.92h-4.49c-.55,0-1.71,0-3.47-.1s-2.87-.1-3.27-.1a69.44,69.44,0,0,1-6.74-14.29q-2.86-8.18-5.31-17.15t-4.39-18q-1.94-9-4-16.54a2.58,2.58,0,0,1-.61-.1,2.75,2.75,0,0,0-.61-.1,6.48,6.48,0,0,0-1,.2c-.69.54-1.61,1.37-2.76,2.45a8,8,0,0,0-1.94,2.25l-14.5,58L80.73,473.7l-1-6.74c0-.13.31-1.7.93-4.7S82,455.73,83,451.65s2-8.27,3.06-12.56,2-7.86,2.86-10.72Q93.6,410,98.39,392.13t8.48-36.44c1.76-1.5,3.33-2.25,4.69-2.25" transform="translate(-79.3 -184.53)"/><path class="cls-1" d="M252.64,361.81h24.09l2.25,3.27c.13,1.5.34,4.18.61,8.06s.51,8,.72,12.25.41,8.34.61,12.15.37,6.47.51,8q.19,4.5,1.13,11.44a73.15,73.15,0,0,0,3.06,13.47,35.18,35.18,0,0,0,5.92,11.23,11.9,11.9,0,0,0,9.7,4.7c1.08,0,2.61-.1,4.59-.31s3.88-.47,5.72-.82,3.43-.67,4.79-1,2.05-.64,2.05-.92l2.45-5.92c-.14-1.08-.28-2.75-.42-5s-.33-4.93-.61-8.06-.5-6.36-.71-9.7-.45-6.77-.71-10.31-.55-7-.82-10.51-.51-6.71-.72-9.71-.4-5.64-.61-8-.3-4.08-.3-5.3c0-.55,0-1.61-.11-3.17s-.1-2.83-.1-3.78V361a12.78,12.78,0,0,1,1.12-5.2,4,4,0,0,1,4-2.55h19.59l2.45,3.06c.14.41.48,2.31,1,5.72s1,7.41,1.53,12,.95,9.33,1.43,14.09.78,8.64.92,11.64v4.49q0,4.29.1,9.7t.1,10.71V440q0,4.5-.1,9.9a36.91,36.91,0,0,1-2.14,11.33,50.42,50.42,0,0,1-3.88,9.29q-2.06,3.57-8,5.62a75.23,75.23,0,0,1-16.64,4.18,138.55,138.55,0,0,1-19.7,1.33,31.69,31.69,0,0,1-16.95-4.39,39.32,39.32,0,0,1-12.14-11.84,66.74,66.74,0,0,1-8.07-17.15,144.51,144.51,0,0,1-4.8-20.52,211.8,211.8,0,0,1-2.34-22.05q-.62-11.23-.62-21.44Z" transform="translate(-79.3 -184.53)"/><path class="cls-1" d="M362.89,465.94a17,17,0,0,1,.92-3.68,55.73,55.73,0,0,1,2.35-6,33.05,33.05,0,0,1,3.16-5.61c1.16-1.64,2.28-2.45,3.37-2.45a23.54,23.54,0,0,1,6.23.81q3,.83,5.81,1.74t5.82,1.63a27.27,27.27,0,0,0,6.44.71h5.1a17.26,17.26,0,0,0,7.25-1.63q3.57-1.63,3.57-6.33c0-2.86-1.5-5.13-4.49-6.84a76,76,0,0,0-11.13-5q-6.63-2.46-14.29-5.51a52.6,52.6,0,0,1-14-8.27A37.09,37.09,0,0,1,358.91,406q-3.78-8.26-2.75-21.12a38.64,38.64,0,0,1,5.1-17.77,40,40,0,0,1,11.43-12.45,49,49,0,0,1,15.72-7.26,70.23,70.23,0,0,1,18.17-2.34c1.09,0,2.89.1,5.41.31s5.38.54,8.58,1,6.5,1.09,9.9,1.83a56.1,56.1,0,0,1,9.29,2.86,26,26,0,0,1,6.94,4.09,6.78,6.78,0,0,1,2.76,5.2c0,.28,0,.72-.11,1.33s-.1,1-.1,1.12a22.93,22.93,0,0,0-1.53,3.78c-.61,1.83-1.26,3.81-1.93,5.92s-1.33,4.12-2,6a31.56,31.56,0,0,1-1.53,4.09c-.27,0-.82,0-1.63.1s-1.36.1-1.63.1a23,23,0,0,1-9.19-1.84,29,29,0,0,1-8-5.1H397c-3.41,0-5.41.88-6,2.65a17.2,17.2,0,0,0-.93,5.72,8.69,8.69,0,0,0,4.09,7.76,44.58,44.58,0,0,0,10.11,4.69c4,1.37,8.37,2.86,13.06,4.5a46.75,46.75,0,0,1,13.07,7,37.17,37.17,0,0,1,10.11,12.25q4.08,7.67,4.08,20.11,0,19-10.62,29.3t-30.22,11.53a44.87,44.87,0,0,1-8.67-.71,105,105,0,0,1-13.38-2.85,60,60,0,0,1-12.55-5q-5.61-3.06-6.23-6.94" transform="translate(-79.3 -184.53)"/><path class="cls-1" d="M459.26,371.2q0-3.66.2-7.25c.13-2.37.21-3.84.21-4.38l2.24-2.25h31.85c.27,2.32.62,5.85,1,10.62s.85,10.11,1.33,16,.92,12.19,1.33,18.79.81,12.9,1.22,18.88.78,11.33,1.12,16,.58,8.14.72,10.31c0,1.23.06,3.47.2,6.74s.24,6.71.31,10.31.17,7,.3,10.21.21,5.48.21,6.84H468.85l-2.45-6.74a45.33,45.33,0,0,1-.71-5.1q-.51-4.5-1.23-11.44T463,443.48q-.72-8.37-1.43-16.74c-.47-5.58-.89-10.89-1.22-15.93s-.58-9.25-.71-12.65c0-.28,0-1-.11-2.25s-.1-2.72-.1-4.5,0-3.6-.1-5.51-.1-3.74-.1-5.51V371.2Z" transform="translate(-79.3 -184.53)"/><path class="cls-1" d="M511.11,481.45V367.94a17.43,17.43,0,0,1,.92-3c.62-1.7,1.06-3,1.33-3.77a6.7,6.7,0,0,1,1.12-1.33c.62-.61,1-.92,1.12-.92H536c.54,0,1,.45,1.33,1.33a12.75,12.75,0,0,1,.71,3.27,39,39,0,0,1,.21,4.19v7.14c0,.95.07,2.72.2,5.3s.34,5.35.61,8.28.55,5.68.82,8.26a36.53,36.53,0,0,0,.82,5.31,18.35,18.35,0,0,0,3.16,1.33,12.82,12.82,0,0,0,3.57.92q.62,0,23.89-36.34a8.77,8.77,0,0,1,1.23-1.84c.82-1.09,1.49-2,2-2.65l2.24-2.25h22.67l2.45,2.25c.13.13-.14,1.08-.82,2.85s-1.73,4.12-3.16,7.05-3.27,6.29-5.51,10.1-4.87,7.76-7.86,11.85q-2.86,4.29-5.52,8.47T574.2,412q-4.49,8.16-2.65,11,1,1.44,5.51,7.35t12.66,16.95l7.15,12.86,7.35,14.5a25,25,0,0,1-1.54,3.26,25.64,25.64,0,0,1-1.53,2.35,2.18,2.18,0,0,1-1.63,1.12H577.06q-28.78-47.77-29.61-47.57c-.13.14-.61.58-1.42,1.33s-1.71,1.64-2.66,2.65-1.84,2-2.65,3a4.21,4.21,0,0,0-1.23,2v38.58Z" transform="translate(-79.3 -184.53)"/><path class="cls-1" d="M630.55,361.2a11.58,11.58,0,0,1,7.14-5.62,34.62,34.62,0,0,1,9.4-1.32h6.12c.82,0,2.35,0,4.6.1s3.78.1,4.59.1q2.65,3.27,6.74,12.15t8.57,20.72q4.5,11.85,9.09,25.22t8.27,25.52q3.67,12.15,5.92,21.64t2.24,13.78v1.23a21.86,21.86,0,0,0-1.32,2.75c-.48,1.16-.85,1.74-1.13,1.74H675.87c-1.36,0-2.41-.82-3.16-2.45a53,53,0,0,1-2.14-5.51,42.19,42.19,0,0,0-2.25-5.52,3.92,3.92,0,0,0-3.67-2.45H642c-1.63,0-2.65,1-3.06,2.86a42.18,42.18,0,0,0-.82,6.23,55,55,0,0,1-.71,6.22c-.34,1.91-1.12,2.86-2.35,2.86H611.56c0-.54,0-1.7.1-3.47s.17-3.6.31-5.51.24-3.74.3-5.51.11-3,.11-3.68q3.06-25.51,7.25-51.45a485.7,485.7,0,0,1,10.92-50.63m27.77,64.31c0-1.09-.07-2.68-.21-4.8s-.34-4.21-.61-6.33a46.5,46.5,0,0,0-1-5.51c-.41-1.56-.89-2.35-1.43-2.35h-5.72c-.14,0-.34.41-.61,1.23s-.58,1.84-.92,3.06-.64,2.52-.91,3.88a17.67,17.67,0,0,0-.41,3.47c0,.55,0,1.53-.11,3s-.17,3-.3,4.6-.24,3.16-.31,4.59-.1,2.42-.1,3q6.93,0,9.8-1.22C657.36,431.23,658.32,429.05,658.32,425.51Z" transform="translate(-79.3 -184.53)"/><path class="cls-1" d="M79.3,534.07c0-1.09,0-2.52.11-4.29s.1-3.6.1-5.51,0-3.37.1-4.8.1-2.21.1-2.34L82,514.88h56.76c.41,1.63.74,3.06,1,4.29s.51,2.48.71,3.77.38,2.35.51,3.17v4.69c-.13,1-.4,2.28-.81,4s-.75,3.14-1,4.3a17,17,0,0,0-.41,1.94H111.56q-2.85,0-4,3.26a18.87,18.87,0,0,0-1.12,6.13v6.32a13,13,0,0,0,.41,3.27,7,7,0,0,0,1.43,2.86,6.25,6.25,0,0,0,3.26,1.84,20.61,20.61,0,0,1,2.86-.52c1.5-.2,3.13-.43,4.9-.71s3.4-.5,4.9-.71a26.44,26.44,0,0,1,3.07-.31c.27,0,.88,0,1.83-.1s1.64-.1,2-.1a12,12,0,0,1,3.77.41c.75.27,1.26,1.7,1.53,4.28q0,1.23.21,4.29c.13,2,.23,4.22.3,6.54s.17,4.48.31,6.53.2,3.47.2,4.29H111.56v23.88h36.15c.26,0,.64.86,1.11,2.56s.92,3.09,1.33,4.18c.13.95.34,2.18.62,3.68s.51,3,.71,4.39.41,2.68.62,3.77.3,1.71.3,1.84a6.38,6.38,0,0,1-1.12,1.73,26.44,26.44,0,0,1-1.95,2.15,16.6,16.6,0,0,1-2.14,1.83,6.61,6.61,0,0,1-1.74,1l-12.55,1.13q-5.82.51-11.43.82t-11.34.41c-3.81.07-7.82.09-12,.09H95.23c-1.22,0-2.48,0-3.78-.09s-2.42-.1-3.36-.1H86.45l-2.25-2.26q-.6-8.57-1-15.51t-.92-15.62q-.51-8.68-1-17.45c-.34-5.85-.65-11.51-.91-16.95s-.48-10.07-.62-13.89c0-.54,0-2-.1-4.28s-.1-4.83-.1-7.56,0-5.44-.1-8.16-.11-4.76-.11-6.13" transform="translate(-79.3 -184.53)"/><path class="cls-1" d="M168.12,626.36a16.35,16.35,0,0,1,.92-3.68,57.71,57.71,0,0,1,2.34-6,33.57,33.57,0,0,1,3.17-5.62c1.16-1.63,2.27-2.44,3.37-2.44a23.41,23.41,0,0,1,6.22.81q3,.83,5.82,1.74t5.82,1.63a27.21,27.21,0,0,0,6.44.71h5.1a17.33,17.33,0,0,0,7.25-1.63c2.37-1.09,3.57-3.19,3.57-6.33,0-2.86-1.5-5.13-4.49-6.83a76.45,76.45,0,0,0-11.13-5q-6.63-2.46-14.29-5.51a52.86,52.86,0,0,1-14-8.27,37,37,0,0,1-10.11-13.47q-3.76-8.28-2.75-21.14a38.87,38.87,0,0,1,5.1-17.76,40.22,40.22,0,0,1,11.44-12.46,48.77,48.77,0,0,1,15.72-7.24,69.81,69.81,0,0,1,18.17-2.35c1.09,0,2.89.1,5.41.3s5.38.55,8.57,1,6.5,1.09,9.91,1.84a56.1,56.1,0,0,1,9.29,2.86,26.12,26.12,0,0,1,6.94,4.09,6.78,6.78,0,0,1,2.76,5.2c0,.27,0,.72-.11,1.33s-.1,1-.1,1.12A21.25,21.25,0,0,0,253,527c-.61,1.83-1.26,3.81-1.94,5.92s-1.33,4.11-1.94,6a31.56,31.56,0,0,1-1.53,4.09c-.27,0-.82,0-1.63.09s-1.36.11-1.64.11a23.07,23.07,0,0,1-9.19-1.84,29.28,29.28,0,0,1-8-5.1h-24.9c-3.41,0-5.41.89-6,2.65a17.44,17.44,0,0,0-.92,5.71,8.67,8.67,0,0,0,4.09,7.77,45.14,45.14,0,0,0,10.1,4.69c4,1.36,8.38,2.86,13.07,4.49a47,47,0,0,1,13.06,7,36.93,36.93,0,0,1,10.11,12.25q4.08,7.65,4.09,20.11,0,19-10.62,29.3T209,641.88a47.8,47.8,0,0,1-8.67-.72,105.11,105.11,0,0,1-13.38-2.86,59.42,59.42,0,0,1-12.55-5q-5.62-3.06-6.23-6.94" transform="translate(-79.3 -184.53)"/><path class="cls-1" d="M262.65,641.88V528.35a16.72,16.72,0,0,1,.92-3c.61-1.7,1.05-3,1.32-3.77a6.5,6.5,0,0,1,1.12-1.33c.62-.61,1-.92,1.13-.92h20.42c.53,0,1,.45,1.32,1.33a12.65,12.65,0,0,1,.71,3.27,38.83,38.83,0,0,1,.22,4.18v7.14c0,1,.06,2.73.2,5.32s.33,5.34.61,8.27.54,5.68.82,8.26a37,37,0,0,0,.81,5.31,19.56,19.56,0,0,0,3.16,1.32,12.71,12.71,0,0,0,3.58.93q.61,0,23.89-36.35a9.37,9.37,0,0,1,1.22-1.83c.82-1.09,1.5-2,2-2.66l2.25-2.24h22.66l2.45,2.24c.14.14-.13,1.09-.81,2.86s-1.74,4.12-3.17,7-3.27,6.31-5.51,10.11-4.87,7.76-7.86,11.84q-2.86,4.29-5.51,8.48t-4.91,8.26q-4.49,8.17-2.65,11,1,1.44,5.51,7.35t12.66,16.95l7.15,12.86,7.35,14.5a27.48,27.48,0,0,1-1.53,3.27c-.48.81-1,1.6-1.53,2.34a2.22,2.22,0,0,1-1.64,1.13H328.59Q299.8,594.09,299,594.3l-1.43,1.33c-.82.75-1.7,1.63-2.66,2.65s-1.83,2-2.65,3a4.29,4.29,0,0,0-1.23,2v38.6Z" transform="translate(-79.3 -184.53)"/><path class="cls-1" d="M360.65,573.89a71.55,71.55,0,0,1,3.06-20.22,65.55,65.55,0,0,1,9.09-19.08,51.07,51.07,0,0,1,14.7-14.2,36,36,0,0,1,19.7-5.51,53.33,53.33,0,0,1,24.91,5.82,59.81,59.81,0,0,1,19,15.31,71.27,71.27,0,0,1,12,21.75,75.39,75.39,0,0,1,4.29,25.11,76.45,76.45,0,0,1-3.17,22,58,58,0,0,1-9.49,18.88,48.66,48.66,0,0,1-15.52,13.28,47.11,47.11,0,0,1-44.5-1.23,64.66,64.66,0,0,1-18.08-16.13,76.58,76.58,0,0,1-11.84-22.05,72.77,72.77,0,0,1-4.18-23.78m29.19,1a54.34,54.34,0,0,0,1.33,10.71,58.07,58.07,0,0,0,4.08,12.46,34.11,34.11,0,0,0,7.15,10.31,14.26,14.26,0,0,0,10.31,4.29,16.13,16.13,0,0,0,10.11-3.06,22.15,22.15,0,0,0,6.32-7.76,35.85,35.85,0,0,0,3.27-10,58,58,0,0,0,.92-10,82.14,82.14,0,0,0-.92-11.43,46.81,46.81,0,0,0-3.47-12.36,29.43,29.43,0,0,0-6.94-9.9,15.66,15.66,0,0,0-11.13-4.08,16.94,16.94,0,0,0-10.2,3,22.23,22.23,0,0,0-6.54,7.45,31.81,31.81,0,0,0-3.37,10A63.76,63.76,0,0,0,389.84,574.91Z" transform="translate(-79.3 -184.53)"/><path class="cls-1" d="M475.39,521.62a12.43,12.43,0,0,1,1-2.76c.54-1.15.95-1.73,1.23-1.73h31l5.51,95.34h40.63a2.83,2.83,0,0,1,2.36,1.23,9.58,9.58,0,0,1,1.42,3,21.13,21.13,0,0,1,.72,3.78c.13,1.36.2,2.65.2,3.88v4.08a8.91,8.91,0,0,1-5,8.27A36.41,36.41,0,0,1,543,640.54a83.16,83.16,0,0,1-13,1.23q-6.43.11-9.29.11h-3.47q-3.07,0-6.84.1c-2.53.07-4.94.09-7.25.09h-9.6c-1.63,0-3.27,0-4.9-.09s-3.13-.1-4.49-.1h-2l-2.25-2.26c-.4-2.85-.71-5.23-.91-7.14s-.45-3.88-.72-5.92-.48-3.74-.61-5.1q-1-11.24-1.64-22.36t-.61-22.35V521.62Z" transform="translate(-79.3 -184.53)"/><path class="cls-1" d="M586.66,521.62a11.63,11.63,0,0,1,7.15-5.62,34.55,34.55,0,0,1,9.39-1.32h6.13c.81,0,2.34,0,4.59.1s3.78.1,4.6.1q2.64,3.27,6.73,12.15t8.57,20.72q4.5,11.85,9.09,25.21t8.27,25.53q3.68,12.13,5.92,21.64t2.25,13.78v1.23a21.72,21.72,0,0,0-1.33,2.75c-.48,1.16-.85,1.73-1.13,1.73H632c-1.36,0-2.42-.81-3.16-2.44a53.18,53.18,0,0,1-2.15-5.52,41.47,41.47,0,0,0-2.25-5.51,3.92,3.92,0,0,0-3.67-2.45H598.1c-1.64,0-2.65,1-3.07,2.86a42.23,42.23,0,0,0-.81,6.23,55.12,55.12,0,0,1-.72,6.23c-.34,1.91-1.12,2.86-2.35,2.86H567.68c0-.55,0-1.7.1-3.47s.17-3.61.3-5.52.24-3.74.31-5.51.1-3,.1-3.68q3.07-25.51,7.25-51.45a488.28,488.28,0,0,1,10.92-50.63m27.77,64.31c0-1.09-.07-2.69-.2-4.79s-.34-4.22-.62-6.33a44.39,44.39,0,0,0-1-5.52c-.41-1.56-.88-2.35-1.43-2.35h-5.71c-.14,0-.35.41-.62,1.22s-.58,1.85-.92,3.07-.64,2.52-.91,3.88a17.58,17.58,0,0,0-.41,3.47c0,.55,0,1.53-.1,3s-.18,3-.31,4.59-.24,3.17-.31,4.6-.1,2.42-.1,3q6.93,0,9.8-1.23C613.48,591.64,614.43,589.47,614.43,585.93Z" transform="translate(-79.3 -184.53)"/></svg>